<?xml version="1.0" encoding="UTF-8"?>
<svg width="25px" height="23px" viewBox="0 0 25 23" version="1.1" xmlns="http://www.w3.org/2000/svg" xmlns:xlink="http://www.w3.org/1999/xlink">
    <!-- Generator: Sketch 58 (84663) - https://sketch.com -->
    <title>Create PQ Icon</title>
    <desc>Created with Sketch.</desc>
    <g id="Create-PQ-Icon" stroke="none" stroke-width="1" fill="none" fill-rule="evenodd">
        <path d="M14,6 C16.209139,6 18,7.790861 18,10 L18,18 C18,20.209139 16.209139,22 14,22 L5,22 C2.790861,22 1,20.209139 1,18 L1,10 C1,7.790861 2.790861,6 5,6 L14,6 Z M12.5223628,10 C11.8436988,10 11.2594967,10.1594984 10.7697391,10.4785 C10.2799816,10.7975016 9.90392335,11.2576637 9.64155322,11.859 L9.64155322,11.859 L9.57620192,12.0248396 C9.46319328,11.5174562 9.20679367,11.1138452 8.807,10.814 C8.24966388,10.3959979 7.46867169,10.187 6.464,10.187 L6.464,10.187 L4,10.187 L4,17.81 L5.804,17.81 L5.804,15.269 L6.629,15.269 C7.54567125,15.269 8.27716394,15.0508355 8.8235,14.6145 C8.99227882,14.4797035 9.13498695,14.3247865 9.24953543,14.1503313 C9.26467971,14.919054 9.39185301,15.5816044 9.63105847,16.138 C9.88643206,16.732003 10.2519956,17.1848318 10.7277601,17.4965 C11.2035246,17.8081682 11.7667374,17.964 12.4174153,17.964 L12.4174153,17.964 L12.6461689,17.9699296 C13.1688306,17.9976013 13.6138153,18.1221239 13.9811334,18.3435 C14.4009256,18.5965013 14.8102169,18.9576643 15.2090195,19.427 L15.2090195,19.427 L16.248,18.008 C15.9401524,17.7733322 15.6183165,17.5991672 15.2824828,17.4855 C14.946649,17.3718328 14.5513506,17.315 14.0965757,17.315 C15.2370112,16.6549967 15.8072204,15.5476744 15.8072204,13.993 C15.8072204,12.724327 15.5186176,11.7416701 14.9414033,11.045 C14.364189,10.3483298 13.5578503,10 12.5223628,10 Z M12.53,11.32 C13.0506693,11.32 13.4393321,11.5289979 13.696,11.947 C13.9526679,12.3650021 14.081,13.0469953 14.081,13.993 C14.081,14.9390047 13.9545013,15.6228312 13.7015,16.0445 C13.4484987,16.4661688 13.0580026,16.677 12.53,16.677 C12.0166641,16.677 11.631668,16.4643355 11.375,16.039 C11.118332,15.6136645 10.99,14.9316714 10.99,13.993 C10.99,13.0543286 11.1164987,12.3741688 11.3695,11.9525 C11.6225013,11.5308312 12.0093307,11.32 12.53,11.32 Z M6.442,11.474 C7.33667114,11.474 7.784,11.8736627 7.784,12.673 C7.784,13.1350023 7.67216778,13.4668323 7.4485,13.6685 C7.22483221,13.8701677 6.90033546,13.971 6.475,13.971 L6.475,13.971 L5.804,13.971 L5.804,11.474 Z" id="Combined-Shape" fill="#C1C0C0" fill-rule="nonzero"></path>
        <path d="M19.4999869,0.546897538 C16.5566345,0.546897538 14.1718746,2.93165748 14.1718746,5.87500983 C14.1718746,8.81836219 16.5566345,11.2031221 19.4999869,11.2031221 C22.4433392,11.2031221 24.8280992,8.81836219 24.8280992,5.87500983 C24.8280992,2.93165748 22.4433392,0.546897538 19.4999869,0.546897538 Z M22.5937295,6.4765709 C22.5937295,6.61835905 22.4777058,6.73438279 22.3359176,6.73438279 L20.3593598,6.73438279 L20.3593598,8.71094057 C20.3593598,8.85272872 20.2433361,8.96875246 20.101548,8.96875246 L18.8984258,8.96875246 C18.7566377,8.96875246 18.6406139,8.85272872 18.6406139,8.71094057 L18.6406139,6.73438279 L16.6640561,6.73438279 C16.522268,6.73438279 16.4062443,6.61835905 16.4062443,6.4765709 L16.4062443,5.27344877 C16.4062443,5.13166062 16.522268,5.01563688 16.6640561,5.01563688 L18.6406139,5.01563688 L18.6406139,3.0390791 C18.6406139,2.89729095 18.7566377,2.78126721 18.8984258,2.78126721 L20.101548,2.78126721 C20.2433361,2.78126721 20.3593598,2.89729095 20.3593598,3.0390791 L20.3593598,5.01563688 L22.3359176,5.01563688 C22.4777058,5.01563688 22.5937295,5.13166062 22.5937295,5.27344877 L22.5937295,6.4765709 Z" id="p" fill="#4878EA" fill-rule="nonzero"></path>
    </g>
</svg>