<?xml version="1.0" encoding="UTF-8"?>
<svg width="17px" height="16px" viewBox="0 0 17 16" version="1.1" xmlns="http://www.w3.org/2000/svg" xmlns:xlink="http://www.w3.org/1999/xlink">
    <!-- Generator: Sketch 58 (84663) - https://sketch.com -->
    <title>PQ Tab icon</title>
    <desc>Created with Sketch.</desc>
    <g id="PQ-Tab-icon" stroke="none" stroke-width="1" fill="none" fill-rule="evenodd">
        <path d="M13,0 C15.209139,-4.05812251e-16 17,1.790861 17,4 L17,12 C17,14.209139 15.209139,16 13,16 L4,16 C1.790861,16 2.705415e-16,14.209139 0,12 L0,4 C-2.705415e-16,1.790861 1.790861,4.05812251e-16 4,0 L13,0 Z M11.5223628,4 C10.8436988,4 10.2594967,4.1594984 9.76973913,4.4785 C9.27998156,4.79750159 8.90392335,5.25766366 8.64155322,5.859 L8.64155322,5.859 L8.57620192,6.02483963 C8.46319328,5.51745617 8.20679367,5.11384525 7.807,4.814 C7.24966388,4.39599791 6.46867169,4.187 5.464,4.187 L5.464,4.187 L3,4.187 L3,11.81 L4.804,11.81 L4.804,9.269 L5.629,9.269 C6.54567125,9.269 7.27716394,9.05083551 7.8235,8.6145 C7.99227882,8.47970349 8.13498695,8.32478654 8.24953543,8.15033134 C8.26467971,8.91905402 8.39185301,9.58160436 8.63105847,10.138 C8.88643206,10.732003 9.25199562,11.1848318 9.72776012,11.4965 C10.2035246,11.8081682 10.7667374,11.964 11.4174153,11.964 L11.4174153,11.964 L11.6461689,11.9699296 C12.1688306,11.9976013 12.6138153,12.1221239 12.9811334,12.3435 C13.4009256,12.5965013 13.8102169,12.9576643 14.2090195,13.427 L14.2090195,13.427 L15.248,12.008 C14.9401524,11.7733322 14.6183165,11.5991672 14.2824828,11.4855 C13.946649,11.3718328 13.5513506,11.315 13.0965757,11.315 C14.2370112,10.6549967 14.8072204,9.54767444 14.8072204,7.993 C14.8072204,6.72432699 14.5186176,5.74167015 13.9414033,5.045 C13.364189,4.34832985 12.5578503,4 11.5223628,4 Z M11.53,5.32 C12.0506693,5.32 12.4393321,5.52899791 12.696,5.947 C12.9526679,6.36500209 13.081,7.04699527 13.081,7.993 C13.081,8.93900473 12.9545013,9.62283122 12.7015,10.0445 C12.4484987,10.4661688 12.0580026,10.677 11.53,10.677 C11.0166641,10.677 10.631668,10.4643355 10.375,10.039 C10.118332,9.61366454 9.99,8.93167136 9.99,7.993 C9.99,7.05432864 10.1164987,6.37416877 10.3695,5.9525 C10.6225013,5.53083122 11.0093307,5.32 11.53,5.32 Z M5.442,5.474 C6.33667114,5.474 6.784,5.87366267 6.784,6.673 C6.784,7.13500231 6.67216778,7.46683232 6.4485,7.6685 C6.22483221,7.87016767 5.90033546,7.971 5.475,7.971 L5.475,7.971 L4.804,7.971 L4.804,5.474 Z" id="Combined-Shape" fill="#5487FF" fill-rule="nonzero"></path>
    </g>
</svg>