<?xml version="1.0" encoding="utf-8"?>
<!-- Generator: Adobe Illustrator 25.2.2, SVG Export Plug-In . SVG Version: 6.00 Build 0)  -->
<svg version="1.2" baseProfile="tiny" id="Layer_1" xmlns="http://www.w3.org/2000/svg" xmlns:xlink="http://www.w3.org/1999/xlink"
	 x="0px" y="0px" viewBox="0 0 152 32" overflow="visible" xml:space="preserve">
<g>
	<g>
		<path fill="#C0BFBF" d="M42.2,12.1c1,0.8,1.6,2.2,1.6,4.4c0,2.1-0.5,3.5-1.5,4.4c-1,0.8-2.4,1.3-3.9,1.3h-3.2V10.9h2.9
			C39.8,10.9,41.2,11.3,42.2,12.1z M37.5,12.6v7.7h1c0.9,0,1.6-0.3,2.1-0.8s0.7-1.6,0.7-3c0-1-0.1-1.8-0.4-2.4c-0.2-0.5-0.6-1-1-1.1
			c-0.4-0.2-0.9-0.3-1.5-0.3L37.5,12.6L37.5,12.6z"/>
	</g>
	<g>
		<path fill="#C0BFBF" d="M55.5,10.9l-0.2,1.8h-4.1v2.9h3.5v1.7h-3.5v3.1h4.3v1.8h-6.7V10.9H55.5L55.5,10.9z"/>
	</g>
	<g>
		<path fill="#C0BFBF" d="M67.2,10.9L67,12.6h-4.1v2.9h3.5v1.7h-3.5v3.1h4.3v1.8h-6.7V10.9H67.2L67.2,10.9z"/>
	</g>
	<g>
		<path fill="#C0BFBF" d="M79.1,11.8c0.8,0.6,1.2,1.5,1.2,2.7c0,1.3-0.4,2.2-1.2,2.8c-0.8,0.6-1.9,1-3.2,1h-1.3v3.8h-2.4V10.9h3.4
			C77.2,10.9,78.3,11.2,79.1,11.8z M77.3,16c0.4-0.3,0.5-0.8,0.5-1.6c0-1.3-0.7-1.9-2.2-1.9h-1v3.9h1.1C76.4,16.5,76.9,16.3,77.3,16
			z"/>
	</g>
	<g>
		<path fill="#C0BFBF" d="M91.1,22.1v-4.9h-3.7v4.9H85V10.9h2.4v4.4h3.7v-4.4h2.4v11.2C93.5,22.1,91.1,22.1,91.1,22.1z"/>
	</g>
	<g>
		<path fill="#C0BFBF" d="M105,22.1l-0.6-2.5h-3.5l-0.6,2.5h-2.5l3.4-11.2h2.9l3.4,11.2H105z M101.4,17.8h2.6l-1.3-5.1L101.4,17.8z"
			/>
	</g>
	<g>
		<path fill="#C0BFBF" d="M119.6,10.9l-3.2,11.2h-2.9l-3.3-11.2h2.5l2.3,9.2l2.2-9.2C117.2,10.9,119.6,10.9,119.6,10.9z"/>
	</g>
	<g>
		<path fill="#C0BFBF" d="M130.5,10.9l-0.2,1.8h-4.1v2.9h3.5v1.7h-3.5v3.1h4.3v1.8h-6.7V10.9H130.5L130.5,10.9z"/>
	</g>
	<g>
		<path fill="#C0BFBF" d="M144,22.1h-3l-3.6-8.8c0.1,0.8,0.2,1.5,0.2,2.2c0.1,0.7,0.1,1.5,0.1,2.4v4.4h-2.1V10.9h3l3.6,8.9
			c-0.2-1.5-0.3-2.8-0.3-4v-4.9h2.1V22.1z"/>
	</g>
</g>
<rect x="8" y="6" fill="#F0F0EE" width="1" height="19"/>
<rect x="26" y="6" fill="#F0F0EE" width="1" height="19"/>
<rect x="14" y="7" fill="#F0F0EE" width="1" height="17"/>
<rect x="20" y="7" fill="#F0F0EE" width="1" height="17"/>
<rect x="9" y="24" fill="#F0F0EE" width="17" height="1"/>
<rect x="9" y="6" fill="#F0F0EE" width="17" height="1"/>
<rect x="9" y="12" fill="#F0F0EE" width="17" height="1"/>
<rect x="9" y="18" fill="#F0F0EE" width="17" height="1"/>
<rect x="9" y="7" fill="#598FD1" width="5" height="5"/>
<rect x="15" y="6" fill="#31669B" width="5" height="6"/>
<rect x="21" y="13" fill="#31669B" width="5" height="5"/>
<rect x="15" y="19" fill="#31669B" width="5" height="6"/>
<rect x="9" y="13" fill="#598FD1" width="5" height="5"/>
<rect x="9" y="19" fill="#598FD1" width="5" height="5"/>
</svg>
