<?xml version="1.0" encoding="utf-8"?>
<!-- Generator: Adobe Illustrator 19.0.0, SVG Export Plug-In . SVG Version: 6.00 Build 0)  -->
<svg version="1.1" id="Layer_1" xmlns="http://www.w3.org/2000/svg" xmlns:xlink="http://www.w3.org/1999/xlink" x="0px" y="0px"
	 viewBox="-270 280 250 53" style="enable-background:new -270 280 250 53;" xml:space="preserve">
<style type="text/css">
	.st0{enable-background:new;}
	.st1{fill:#598FD1;}
	.st2{fill:#31669B;}
	.st3{fill:#EAEAEA;}
	.st4{fill:#F0F0EE;}
</style>
<g class="st0">
</g>
<g>
	<rect id="XMLID_246_" x="-268.9" y="281.1" class="st1" width="12.4" height="37.1"/>
	<rect id="XMLID_245_" x="-256.6" y="306.4" class="st2" width="12.4" height="12.9"/>
	<rect id="XMLID_244_" x="-244.2" y="293.4" class="st2" width="12.4" height="12.5"/>
	<rect id="XMLID_243_" x="-256.6" y="280" class="st2" width="12.4" height="12.9"/>
	<path class="st3" d="M-245.3,280v12.4h-10.2V280H-270v39.3h14.6v-12.4h10.2v12.4h14.6V280H-245.3z M-243.1,292.4v-10.2h10.1v10.2
		H-243.1z M-243.1,304.7v-10.1h10.1v10.1H-243.1z M-243.1,317.1v-10.2h10.1v10.2H-243.1z M-245.3,294.6v10.2l-10.2-0.1v-10.1H-245.3
		z M-257.6,306.9v10.2h-10.2v-10.2H-257.6z M-257.6,294.6v10.1h-10.2v-10.1H-257.6z M-257.6,282.2v10.2h-10.2v-10.2H-257.6z"/>
	<g class="st0">
		<path class="st4" d="M-197.3,292.6c1.7,1.3,2.6,3.7,2.6,7.2c0,3.4-0.8,5.8-2.5,7.2c-1.7,1.4-3.9,2.1-6.5,2.1h-5.3v-18.5h4.8
			C-201.3,290.6-199,291.3-197.3,292.6z M-205.1,293.5v12.7h1.6c1.5,0,2.7-0.5,3.5-1.4s1.2-2.6,1.2-5c0-1.7-0.2-3-0.6-3.9
			c-0.4-0.9-1-1.6-1.7-1.9s-1.5-0.5-2.5-0.5H-205.1z"/>
	</g>
	<g class="st0">
		<path class="st4" d="M-175.4,290.6l-0.4,2.9h-6.7v4.8h5.8v2.8h-5.8v5.1h7.1v2.9h-11.1v-18.5H-175.4z"/>
	</g>
	<g class="st0">
		<path class="st4" d="M-156,290.6l-0.4,2.9h-6.7v4.8h5.8v2.8h-5.8v5.1h7.1v2.9H-167v-18.5H-156z"/>
	</g>
	<g class="st0">
		<path class="st4" d="M-136.3,292.1c1.3,1,2,2.5,2,4.5c0,2.1-0.7,3.6-2,4.7c-1.3,1-3.1,1.6-5.3,1.6h-2.1v6.3h-3.9v-18.5h5.7
			C-139.5,290.6-137.6,291.1-136.3,292.1z M-139.3,299.1c0.6-0.5,0.9-1.4,0.9-2.6c0-2.1-1.2-3.1-3.6-3.1h-1.7v6.5h1.8
			C-140.8,299.9-139.9,299.6-139.3,299.1z"/>
	</g>
	<g class="st0">
		<path class="st4" d="M-116.4,309.1V301h-6.1v8.1h-3.9v-18.5h3.9v7.3h6.1v-7.3h3.9v18.5H-116.4z"/>
	</g>
	<g class="st0">
		<path class="st4" d="M-93.5,309.1l-1-4.1h-5.8l-1,4.1h-4.1l5.7-18.5h4.8l5.7,18.5H-93.5z M-99.5,302h4.3l-2.2-8.5L-99.5,302z"/>
	</g>
	<g class="st0">
		<path class="st4" d="M-69.3,290.6l-5.3,18.5h-4.8l-5.5-18.5h4.2l3.8,15.2l3.6-15.2H-69.3z"/>
	</g>
	<g class="st0">
		<path class="st4" d="M-51.3,290.6l-0.4,2.9h-6.7v4.8h5.8v2.8h-5.8v5.1h7.1v2.9h-11.1v-18.5H-51.3z"/>
	</g>
	<g class="st0">
		<path class="st4" d="M-29,309.1h-5l-5.9-14.6c0.2,1.3,0.3,2.4,0.4,3.6s0.1,2.4,0.1,3.9v7.2h-3.5v-18.5h4.9l6,14.7
			c-0.4-2.4-0.5-4.6-0.5-6.6v-8.1h3.5V309.1z"/>
	</g>
	<g class="st0">
		<path class="st4" d="M-200.2,318c1.3,1,2,2.9,2,5.6c0,2.6-0.7,4.5-2,5.6c-1.3,1.1-2.9,1.6-4.8,1.6h-3.4v-14.3h3
			C-203.2,316.5-201.5,317-200.2,318z M-206.4,318.1v11.2h1.6c1.3,0,2.4-0.4,3.2-1.2c0.8-0.8,1.2-2.3,1.2-4.4c0-1.5-0.2-2.7-0.6-3.5
			c-0.4-0.8-1-1.3-1.6-1.6c-0.7-0.3-1.4-0.4-2.3-0.4H-206.4z"/>
	</g>
	<g class="st0">
		<path class="st4" d="M-185.4,329.2c0.2,0.2,0.4,0.4,0.7,0.5l-0.4,1.3c-0.6-0.1-1-0.2-1.4-0.5c-0.3-0.2-0.6-0.6-0.8-1.2
			c-0.7,1.1-1.8,1.6-3.3,1.6c-1.1,0-1.9-0.3-2.6-0.9c-0.6-0.6-0.9-1.4-0.9-2.4c0-1.2,0.4-2.1,1.3-2.7s2-0.9,3.6-0.9h1.7v-0.8
			c0-0.8-0.2-1.3-0.6-1.7s-0.9-0.5-1.7-0.5c-0.8,0-1.8,0.2-2.9,0.6l-0.5-1.4c1.4-0.5,2.6-0.7,3.8-0.7c1.3,0,2.2,0.3,2.9,0.9
			c0.6,0.6,1,1.5,1,2.7v5C-185.6,328.7-185.5,329-185.4,329.2z M-187.5,327.9v-2.5h-1.4c-2,0-3,0.7-3,2.2c0,0.6,0.2,1.1,0.5,1.5
			c0.3,0.3,0.8,0.5,1.4,0.5C-189,329.6-188.1,329.1-187.5,327.9z"/>
	</g>
	<g class="st0">
		<path class="st4" d="M-174,330.3c-0.7,0.5-1.5,0.7-2.4,0.7c-0.9,0-1.6-0.3-2.2-0.8s-0.8-1.3-0.8-2.3v-6.6h-1.9v-1.5h1.9v-2.5
			l1.9-0.2v2.7h2.6l-0.2,1.5h-2.4v6.5c0,0.6,0.1,1,0.3,1.2c0.2,0.3,0.5,0.4,1,0.4c0.4,0,0.9-0.1,1.5-0.4L-174,330.3z"/>
	</g>
	<g class="st0">
		<path class="st4" d="M-162.1,329.2c0.2,0.2,0.4,0.4,0.7,0.5l-0.4,1.3c-0.6-0.1-1-0.2-1.4-0.5c-0.3-0.2-0.6-0.6-0.8-1.2
			c-0.7,1.1-1.8,1.6-3.3,1.6c-1.1,0-1.9-0.3-2.6-0.9c-0.6-0.6-0.9-1.4-0.9-2.4c0-1.2,0.4-2.1,1.3-2.7s2-0.9,3.6-0.9h1.7v-0.8
			c0-0.8-0.2-1.3-0.6-1.7s-0.9-0.5-1.7-0.5c-0.8,0-1.8,0.2-2.9,0.6l-0.5-1.4c1.4-0.5,2.6-0.7,3.8-0.7c1.3,0,2.2,0.3,2.9,0.9
			c0.6,0.6,1,1.5,1,2.7v5C-162.3,328.7-162.3,329-162.1,329.2z M-164.2,327.9v-2.5h-1.4c-2,0-3,0.7-3,2.2c0,0.6,0.2,1.1,0.5,1.5
			c0.3,0.3,0.8,0.5,1.4,0.5C-165.7,329.6-164.9,329.1-164.2,327.9z"/>
	</g>
	<g class="st0">
		<path class="st4" d="M-147,316.5v12.6h5.9l-0.2,1.7h-7.6v-14.3H-147z"/>
	</g>
	<g class="st0">
		<path class="st4" d="M-128.9,329.2c0.2,0.2,0.4,0.4,0.7,0.5l-0.4,1.3c-0.6-0.1-1-0.2-1.4-0.5c-0.3-0.2-0.6-0.6-0.8-1.2
			c-0.7,1.1-1.8,1.6-3.3,1.6c-1.1,0-1.9-0.3-2.6-0.9c-0.6-0.6-0.9-1.4-0.9-2.4c0-1.2,0.4-2.1,1.3-2.7c0.8-0.6,2-0.9,3.6-0.9h1.7
			v-0.8c0-0.8-0.2-1.3-0.6-1.7c-0.4-0.3-0.9-0.5-1.7-0.5c-0.8,0-1.8,0.2-2.9,0.6l-0.5-1.4c1.4-0.5,2.6-0.7,3.8-0.7
			c1.3,0,2.2,0.3,2.9,0.9c0.6,0.6,1,1.5,1,2.7v5C-129.1,328.7-129,329-128.9,329.2z M-131,327.9v-2.5h-1.4c-2,0-3,0.7-3,2.2
			c0,0.6,0.2,1.1,0.5,1.5c0.3,0.3,0.8,0.5,1.4,0.5C-132.5,329.6-131.6,329.1-131,327.9z"/>
	</g>
	<g class="st0">
		<path class="st4" d="M-115.1,321.1c0.7,1,1.1,2.4,1.1,4.2c0,1.1-0.2,2.1-0.5,3s-0.8,1.5-1.5,2c-0.7,0.5-1.4,0.7-2.3,0.7
			c-1.1,0-2.1-0.5-2.9-1.5l-0.2,1.2h-1.7v-15.3l1.9-0.2v6c0.8-1.1,1.8-1.6,3.1-1.6C-116.8,319.6-115.8,320.1-115.1,321.1z
			 M-116.8,328.5c0.5-0.7,0.7-1.7,0.7-3.2c0-1.5-0.2-2.5-0.7-3.2c-0.4-0.7-1.1-1-1.9-1c-1,0-1.8,0.6-2.6,1.7v5.2
			c0.3,0.5,0.6,0.8,1.1,1.1c0.4,0.3,0.9,0.4,1.3,0.4C-117.9,329.5-117.2,329.2-116.8,328.5z"/>
	</g>
	<g class="st0">
		<path class="st4" d="M-103.7,319.9c0.6,0.2,1.2,0.5,1.7,0.9l-0.8,1.2c-0.5-0.3-1-0.6-1.4-0.7c-0.5-0.2-0.9-0.2-1.4-0.2
			c-0.6,0-1.1,0.1-1.5,0.4c-0.4,0.3-0.5,0.6-0.5,1c0,0.4,0.2,0.8,0.5,1s1,0.5,1.8,0.7c1.2,0.3,2.1,0.7,2.7,1.2
			c0.6,0.5,0.9,1.2,0.9,2.2c0,1.1-0.4,1.9-1.3,2.5c-0.8,0.6-1.9,0.9-3.1,0.9c-1.7,0-3-0.5-4.1-1.4l1-1.2c0.9,0.7,1.9,1.1,3.1,1.1
			c0.7,0,1.3-0.1,1.7-0.4c0.4-0.3,0.6-0.7,0.6-1.2c0-0.4-0.1-0.7-0.2-0.9c-0.2-0.2-0.4-0.4-0.8-0.6c-0.4-0.2-0.9-0.4-1.6-0.5
			c-1.2-0.3-2-0.7-2.5-1.2c-0.5-0.5-0.8-1.2-0.8-1.9c0-0.6,0.2-1.1,0.5-1.5c0.3-0.5,0.8-0.8,1.4-1.1s1.3-0.4,2-0.4
			S-104.2,319.7-103.7,319.9z"/>
	</g>
</g>
</svg>
