<svg xmlns="http://www.w3.org/2000/svg" viewBox="0 0 16 16" fill="currentColor"><path d="M14.7 6.1c-.3-1.2-.9-2.2-1.8-3.1-.8-.8-1.8-1.4-2.9-1.8v1.1c.4.1.7.3 1 .5l1.2.9c.4.4.7.8.9 1.2.3.4.5.9.6 1.4.2.6.3 1.1.3 1.7 0 .5-.1 1.1-.2 1.6s-.3 1-.6 1.4c-.5.9-1.3 1.6-2.2 2.2-.4.3-.9.5-1.4.6-.5.1-1 .2-1.6.2-.5 0-1.1-.1-1.6-.2s-1-.3-1.4-.6l-1.2-.9c-.8-.8-1.3-1.7-1.6-2.7-.1-.5-.2-1-.2-1.6 0-.5.1-1.1.2-1.6s.3-1 .6-1.4c.5-.9 1.3-1.7 2.2-2.2.3-.2.7-.3 1-.5v-1c-.5.2-1.1.4-1.5.7-1.1.6-1.9 1.4-2.5 2.5-.4.5-.6 1.1-.8 1.6C1.1 6.7 1 7.4 1 8c0 .6.1 1.3.2 1.9.2.5.4 1.1.8 1.6.3.5.7 1 1.1 1.4.4.5.9.8 1.4 1.1.5.3 1.1.5 1.7.7.5.2 1.2.3 1.8.3.6 0 1.3-.1 1.9-.2.6-.2 1.1-.4 1.7-.7 1-.6 1.9-1.5 2.5-2.5.3-.5.5-1.1.7-1.7.1-.6.2-1.3.2-1.9s-.1-1.3-.3-1.9z"/></svg>