<svg xmlns="http://www.w3.org/2000/svg" viewBox="0 0 16 16" fill="currentColor"><path d="M14.7 6.1c-.3-1.2-.9-2.2-1.8-3.1-.8-.8-1.9-1.4-3-1.7C9.3 1.1 8.6 1 8 1c-.6 0-1.3.1-1.9.3-.5.1-1.1.3-1.6.7-1.1.6-1.9 1.4-2.5 2.5-.4.5-.6 1.1-.8 1.6C1.1 6.7 1 7.4 1 8c0 .6.1 1.3.2 1.9.2.5.4 1.1.8 1.6.3.5.7 1 1.1 1.4.4.5.9.8 1.4 1.1.5.3 1.1.5 1.7.7.5.2 1.2.3 1.8.3.6 0 1.3-.1 1.9-.2.6-.2 1.1-.4 1.7-.7 1-.6 1.9-1.5 2.5-2.5.3-.5.5-1.1.7-1.7.1-.6.2-1.3.2-1.9s-.1-1.3-.3-1.9zm-3.6 3.8l-3.6-2V2.8h1v4.6L11.6 9l-.5.9z"/></svg>