<svg xmlns="http://www.w3.org/2000/svg" viewBox="0 0 16 16" fill="currentColor"><path d="M13.9 4.4l-3.3-3.3-.4-.1H2.5l-.5.5V7h1V2h6v3.5l.5.5H13v1h1V4.8l-.1-.4zM10 5V2l3 3h-3zM2.5 8l-.5.5v6l.5.5h11l.5-.5v-6l-.5-.5h-11zM13 13v1H3V9h10v4zm-6.8-.1c-.2.1-.5.1-.8.1-.5 0-.8-.1-1.1-.4-.3-.2-.4-.6-.4-1 0-.5.1-.9.4-1.2.3-.3.7-.4 1.2-.4.3 0 .5 0 .7.1v.6c-.2-.1-.4-.2-.7-.2-.3 0-.5.1-.7.3-.2.2-.3.4-.3.7 0 .3.1.5.2.7.2.2.4.3.7.3.3 0 .5-.1.7-.2v.6zm.6 0v-.7c.1.1.3.2.4.2.1.1.3.1.4.1h.2c.1 0 .1 0 .2-.1l.1-.1v-.1c0-.1 0-.1-.1-.2.1 0 0 0 0-.1-.1 0-.1-.1-.2-.1s-.2-.1-.3-.1c-.2-.1-.4-.2-.5-.4-.1-.1-.2-.3-.2-.5s0-.3.1-.4c.1-.1.1-.2.3-.3.1 0 .2-.1.4-.1h.8c.1 0 .2 0 .3.1v.6s-.1-.1-.2-.1-.1 0-.2-.1h-.6c-.1 0-.1 0-.2.1l-.1.1v.2l.1.1s.1.1.2.1.1.1.2.1c.1.1.2.1.3.2.1.1.2.1.2.2.1.1.1.2.2.2 0 .1.1.2.1.3 0 .2 0 .3-.1.4-.1.1-.1.2-.3.3.1.1 0 .2-.1.2h-1c-.1 0-.2-.1-.4-.1zm5.3-2.9l-1 3h-.8l-1-3h.7l.6 2.1c0 .1.1.2.1.3 0-.1 0-.2.1-.3l.6-2.1h.7z"/></svg>