<?xml version="1.0" encoding="utf-8"?>
<!-- Generator: Adobe Illustrator 25.4.1, SVG Export Plug-In . SVG Version: 6.00 Build 0)  -->
<svg version="1.1" id="Layer_1" xmlns="http://www.w3.org/2000/svg" xmlns:xlink="http://www.w3.org/1999/xlink" x="0px" y="0px"
	 viewBox="0 0 16 16" style="enable-background:new 0 0 16 16;" xml:space="preserve">
<polygon points="13.7,9.4 13.1,8.5 11.2,9.6 8.5,8 11.2,6.4 13.1,7.5 13.7,6.6 12.3,5.8 13.8,4.9 13.3,4.1 11.8,5 11.8,3.4 
	10.7,3.4 10.7,5.5 8,7.1 8,4 9.9,2.9 9.4,2 8,2.8 8,1 7,1 7,2.8 5.6,2 5.1,2.9 7,4 7,7.1 4.3,5.5 4.3,3.4 3.2,3.4 3.2,5 1.7,4.1 
	1.2,4.9 2.7,5.8 1.3,6.6 1.9,7.5 3.8,6.4 6.5,8 3.8,9.6 1.9,8.5 1.3,9.4 2.7,10.2 1.2,11.1 1.7,11.9 3.2,11 3.2,12.6 4.3,12.6 
	4.3,10.5 7,8.9 7,12 5.1,13.1 5.6,14 7,13.2 7,15 8,15 8,13.2 9.4,14 9.9,13.1 8,12 8,8.9 10.7,10.5 10.7,12.6 11.8,12.6 11.8,11 
	13.3,11.9 13.8,11.1 12.3,10.2 "/>
</svg>
