<svg xmlns="http://www.w3.org/2000/svg" viewBox="0 0 16 16" fill="currentColor"><path d="M8.8 3.5l-1.5 1-.4-1.8H4.8l-.5 1.8-1.6-1L1.3 5l1.1 1.5-1.9.3V9l1.8.4-1 1.6 1.5 1.5 1.5-1.1.4 1.9h2.2l.4-1.8 1.6 1 1.5-1.5-1-1.6 1.9-.4V6.9l-2-.4 1-1.6-1.5-1.4zm1.2 1l.9.2-.5.8.8.8.8-.5.2.9h1.1l.2-.9.8.5.7-.8-.5-.8.9-.2V3.4l-.9-.2.5-.7-.8-.8-.8.5-.2-.9h-1.1l-.1.9-.8-.5-.8.8.5.8-.9.1v1.1zm2.7-1.3c.5 0 .8.3.8.8s-.3.8-.8.8-.8-.3-.8-.8.3-.8.8-.8zM10 12.6l.9.2-.5.8.8.8.8-.5.2.9h1.1l.2-.9.8.5.8-.8-.5-.8.9-.2v-1.1l-.9-.2.5-.8-.8-.8-.8.5-.2-.9h-1.1l-.2.9-.8-.5-.8.8.5.8-.9.2v1.1zm2.7-1.4c.5 0 .8.3.8.8s-.3.8-.8.8-.8-.3-.8-.8c0-.4.3-.8.8-.8zM6.9 9.1c-.6.6-1.5.6-2.2 0-.6-.6-.6-1.5 0-2.2s1.5-.6 2.2 0 .6 1.5 0 2.2z"/></svg>