<?xml version="1.0" encoding="utf-8"?>
<!-- Generator: Adobe Illustrator 27.5.0, SVG Export Plug-In . SVG Version: 6.00 Build 0)  -->
<svg version="1.1" id="Layer_1" xmlns="http://www.w3.org/2000/svg" xmlns:xlink="http://www.w3.org/1999/xlink" x="0px" y="0px"
	 viewBox="0 0 16 16" style="enable-background:new 0 0 16 16;" xml:space="preserve">
<path d="M13,12h2v1h-2v2h-1v-2h-2v-1h2v-2h1V12z M10.9,4.5c-0.6-0.6-0.6-1.5,0-2.1c0.1-0.1,0.1-0.1,0.2-0.2l0,0
	c0.6-0.4,1.4-0.3,1.9,0.2c0.6,0.6,0.6,1.6,0,2.1c-0.1,0.1-0.3,0.2-0.5,0.3C12,5.1,11.4,5,10.9,4.5z M11.5,3.5c0,0.1,0.1,0.3,0.1,0.4
	v0c0.2,0.2,0.5,0.2,0.7,0c0.2-0.2,0.2-0.5,0-0.7C12.3,3,12.1,3,12,3C11.7,3,11.5,3.2,11.5,3.5C11.5,3.5,11.5,3.5,11.5,3.5z M6.3,4.2
	C5.7,3.3,5.9,2,6.8,1.4c0,0,0,0,0.1,0C7.8,0.7,9.1,1,9.7,1.9c0.6,0.9,0.4,2.1-0.5,2.8h0C8.2,5.3,7,5.1,6.3,4.2z M7.4,3.8
	C7.4,3.8,7.4,3.8,7.4,3.8C7.9,4.1,8.5,4,8.8,3.5c0.3-0.4,0.2-1-0.3-1.3v0C8.1,1.9,7.5,2,7.2,2.4C6.8,2.9,6.9,3.5,7.4,3.8z M2.9,4.5
	C2.5,4.1,2.4,3.5,2.6,2.9C2.8,2.3,3.4,2,4,2c0.4,0,0.8,0.2,1.1,0.4c0.3,0.3,0.4,0.7,0.4,1.1c0,0.4-0.2,0.8-0.4,1.1
	C4.5,5.1,3.5,5.1,2.9,4.5z M3.5,3.5C3.5,3.8,3.7,4,4,4c0.3,0,0.5-0.2,0.5-0.5C4.5,3.2,4.3,3,4,3C3.7,3,3.5,3.2,3.5,3.5
	C3.5,3.5,3.5,3.5,3.5,3.5z M14.5,6c-0.3-0.3-0.8-0.5-1.2-0.5h-1.8c0.2,0.3,0.4,0.6,0.5,1h1.3c0.2,0,0.4,0.1,0.5,0.2
	C13.9,6.8,14,7,14,7.2V9h1V7.2C15,6.8,14.8,6.3,14.5,6z M10,9h1V7.2c0-0.5-0.2-0.9-0.5-1.3v0c-0.3-0.3-0.8-0.5-1.2-0.5H6.8
	C6.3,5.5,5.8,5.7,5.5,6C5.2,6.3,5,6.8,5,7.2v3.2c0,0.3,0.1,0.5,0.3,0.7c0.2,0.2,0.4,0.3,0.7,0.3v2.3c0,0.3,0.1,0.6,0.3,0.9
	C6.5,14.8,6.8,14.9,7,15h1v-1H7.2C7.1,14,7,13.9,7,13.8v-3.3H6V7.2C6,7,6.1,6.8,6.2,6.7c0.1-0.1,0.3-0.2,0.5-0.2h2.5
	c0.3,0,0.6,0.2,0.7,0.5C10,7,10,7.1,10,7.2V9z M3.2,12.5c-0.1,0-0.1,0-0.1,0c0,0-0.1-0.1,0-0.2V9.5H2V7.2C2,7,2.1,6.8,2.2,6.7
	c0.1-0.1,0.3-0.2,0.5-0.2h1.3c0.1-0.4,0.3-0.7,0.5-1H2.8C2.3,5.5,1.8,5.7,1.5,6C1.2,6.3,1,6.8,1,7.2v2.2c0,0.3,0.1,0.5,0.3,0.7
	c0.2,0.2,0.4,0.3,0.7,0.3v1.8c0,0.3,0.1,0.6,0.3,0.8c0.2,0.2,0.5,0.4,0.8,0.4H5v-1L3.2,12.5L3.2,12.5z"/>
</svg>
