<?xml version="1.0" encoding="utf-8"?>
<!-- Generator: Adobe Illustrator 26.3.1, SVG Export Plug-In . SVG Version: 6.00 Build 0)  -->
<svg version="1.1" id="Layer_1" xmlns="http://www.w3.org/2000/svg" xmlns:xlink="http://www.w3.org/1999/xlink" x="0px" y="0px"
	 viewBox="0 0 22 16" style="enable-background:new 0 0 22 16;" xml:space="preserve">
<path d="M3.9,2L3.9,2L4,3H3.9C3.7,3,3.5,3,3.3,3.1C2.8,3.3,2.5,3.9,2.5,4.5c0,0.2,0,0.5,0,0.7c0,0.2,0,0.4,0,0.7
	c0,0.2,0,0.4-0.1,0.6c0,0.2-0.1,0.4-0.2,0.6C2.1,7.4,1.8,7.8,1.5,8c0.3,0.2,0.6,0.6,0.7,1c0.1,0.2,0.1,0.4,0.2,0.6
	c0,0.2,0.1,0.4,0.1,0.6c0,0.2,0,0.4,0,0.7c0,0.2,0,0.4,0,0.7c0,0.2,0,0.4,0.1,0.6c0.1,0.2,0.2,0.3,0.3,0.5c0.1,0.1,0.3,0.2,0.5,0.3
	C3.5,13,3.7,13,3.9,13H4v1H3.9c-0.3,0-0.6-0.1-0.9-0.2c-0.3-0.1-0.6-0.3-0.8-0.5c-0.2-0.2-0.4-0.5-0.5-0.8v0
	c-0.1-0.3-0.2-0.5-0.2-0.8v0c0-0.3,0-0.6,0-0.9c0-0.3,0-0.6,0-0.9c0-0.2,0-0.4-0.1-0.6l0,0C1.3,9.2,1.2,9.1,1.1,8.9l0,0
	C1,8.8,0.8,8.7,0.6,8.6l0,0C0.5,8.5,0.3,8.5,0.1,8.5H0v-1h0.1c0.2,0,0.4,0,0.6-0.1C1,7.2,1.3,7,1.4,6.6v0C1.5,6.4,1.5,6.2,1.5,6
	c0-0.3,0-0.6,0-0.9c0-0.3,0-0.6,0-0.9v0c0-0.3,0.1-0.6,0.2-0.8v0C1.8,3.2,2,2.9,2.2,2.7C2.4,2.5,2.7,2.3,3,2.2C3.3,2.1,3.6,2,3.9,2z
	 M21.9,7.5c-0.2,0-0.4,0-0.6-0.1l0,0c-0.2-0.1-0.3-0.2-0.5-0.3l0,0c-0.1-0.1-0.2-0.3-0.3-0.5v0c-0.1-0.2-0.1-0.4-0.1-0.6
	c0-0.3,0-0.6,0-0.9c0-0.3,0-0.6,0-0.9v0c0-0.3-0.1-0.6-0.2-0.8v0c-0.1-0.3-0.3-0.5-0.5-0.8c-0.2-0.2-0.5-0.4-0.8-0.5
	C18.7,2.1,18.4,2,18.1,2H18v1h0.1c0.2,0,0.4,0,0.6,0.1c0.2,0.1,0.3,0.2,0.5,0.3c0.1,0.1,0.2,0.3,0.3,0.5c0.1,0.2,0.1,0.4,0.1,0.6
	c0,0.2,0,0.5,0,0.7c0,0.2,0,0.5,0,0.7c0,0.2,0,0.4,0.1,0.6c0,0.2,0.1,0.4,0.2,0.6c0.2,0.4,0.4,0.7,0.7,1c-0.3,0.2-0.6,0.6-0.7,1
	c-0.1,0.2-0.1,0.4-0.2,0.6c0,0.2-0.1,0.4-0.1,0.6c0,0.2,0,0.4,0,0.7c0,0.2,0,0.5,0,0.7c0,0.6-0.3,1.1-0.9,1.4
	C18.5,13,18.3,13,18.1,13H18v1h0.1c0.3,0,0.6-0.1,0.9-0.2c0.3-0.1,0.6-0.3,0.8-0.5c0.2-0.2,0.4-0.5,0.5-0.8v0
	c0.1-0.3,0.2-0.5,0.2-0.8v0c0-0.3,0-0.6,0-0.9c0-0.3,0-0.6,0-0.9c0-0.2,0-0.4,0.1-0.6v0C20.7,9,21,8.8,21.4,8.6
	c0.2-0.1,0.4-0.1,0.6-0.1H22L21.9,7.5L21.9,7.5z M15.9,8.4l-7.5,5L7.6,13V3l0.8-0.4l7.5,5V8.4z M14.7,8L8.6,3.9v8.1L14.7,8z"/>
</svg>
