<svg xmlns="http://www.w3.org/2000/svg" viewBox="0 0 16 16" fill="currentColor"><path d="M12.5 10c-.8 0-1.6.4-2 1.1L5.9 9c.1-.1.1-.3.1-.5 0-.3-.1-.5-.1-.7l4.7-2.6c.5.5 1.1.8 1.9.8C13.9 6 15 4.9 15 3.5S13.9 1 12.5 1 10 2.1 10 3.5c0 .3.1.5.1.7L5.4 6.9C4.9 6.3 4.3 6 3.5 6 2.1 6 1 7.1 1 8.5S2.1 11 3.5 11c.8 0 1.6-.4 2-1.1l4.5 2c0 .2-.1.4-.1.5 0 1.4 1.1 2.5 2.5 2.5s2.5-1.1 2.5-2.5-1-2.4-2.4-2.4zm0-8c.8 0 1.5.7 1.5 1.5S13.3 5 12.5 5 11 4.3 11 3.5 11.7 2 12.5 2zm-9 8C2.7 10 2 9.3 2 8.5S2.7 7 3.5 7 5 7.7 5 8.5 4.3 10 3.5 10zm9 4c-.8 0-1.5-.7-1.5-1.5s.7-1.5 1.5-1.5 1.5.7 1.5 1.5-.7 1.5-1.5 1.5z"/></svg>