<?xml version="1.0" encoding="utf-8"?>
<!-- Generator: Adobe Illustrator 28.1.0, SVG Export Plug-In . SVG Version: 6.00 Build 0)  -->
<svg version="1.1" id="Layer_1" xmlns="http://www.w3.org/2000/svg" xmlns:xlink="http://www.w3.org/1999/xlink" x="0px" y="0px"
	 viewBox="0 0 16 16" style="enable-background:new 0 0 16 16;" xml:space="preserve">
<path d="M14,7v1h-3.85H6.77H2V7h3.44C5.12,6.58,4.95,6.07,4.95,5.45c0-0.87,0.32-1.58,0.95-2.13C6.53,2.77,7.37,2.5,8.41,2.5
	c0.48,0,0.96,0.06,1.43,0.17c0.47,0.11,0.94,0.29,1.41,0.52L10.7,4.27c-0.39-0.2-0.78-0.34-1.16-0.44C9.16,3.73,8.75,3.69,8.32,3.69
	c-0.62,0-1.12,0.14-1.48,0.43C6.48,4.41,6.3,4.81,6.3,5.33c0,0.45,0.17,0.81,0.5,1.08C7.04,6.6,7.41,6.8,7.9,7H14z M9.1,9
	c0.21,0.12,0.39,0.24,0.53,0.36c0.34,0.3,0.51,0.71,0.51,1.21c0,0.56-0.2,0.99-0.61,1.29c-0.41,0.3-0.93,0.45-1.57,0.45
	c-0.56,0-1.06-0.07-1.49-0.2s-0.87-0.35-1.31-0.65l-0.65,1.03c0.52,0.35,1.05,0.6,1.6,0.76c0.55,0.16,1.14,0.24,1.77,0.24
	c1.15,0,2.04-0.29,2.67-0.87c0.63-0.58,0.95-1.31,0.95-2.19c0-0.56-0.12-1.04-0.34-1.44H9.1z"/>
</svg>
