<?xml version="1.0" encoding="utf-8"?>
<!-- Generator: Adobe Illustrator 25.2.0, SVG Export Plug-In . SVG Version: 6.00 Build 0)  -->
<svg version="1.1" id="Layer_1" xmlns="http://www.w3.org/2000/svg" xmlns:xlink="http://www.w3.org/1999/xlink" x="0px" y="0px"
	 viewBox="0 0 16 16" style="enable-background:new 0 0 16 16;" xml:space="preserve">
<style type="text/css">
	.st0{fill-rule:evenodd;clip-rule:evenodd;}
</style>
<path class="st0" d="M13.5,2h-12L1,2.5v11L1.5,14h12l0.5-0.5v-11L13.5,2z M5,13H2v-2h3V13z M5,10H2V8h3V10z M5,7H2V5h3V7z M9,13H6
	v-2h3V13z M9,10H6V8h3V10z M9,7H6V5h3V7z M13,13h-3v-2h3V13z M13,10h-3V8h3V10z M13,7h-3V5h3V7z"/>
</svg>
