<svg xmlns="http://www.w3.org/2000/svg" viewBox="0 0 16 16" fill="currentColor"><path d="M1 6.6v-.2C1 4.5 2.5 3 4.4 3h3.1c.4 0 .8.1 1.2.2l-.8.8H4.4C3.1 4 2 5.1 2 6.4v.2c0 .9.5 1.7 1.2 2.1l-.7.7C1.6 8.8 1 7.8 1 6.6zM12.6.2l-1.2 1.2-2.1 2.1-.7.8-4.7 4.6-.8.8-1.7 1.7-1.2 1.2L1.6 14 14 1.6 12.6.2zM12 6v1c1.2.2 2 1.2 2 2.4v.2c0 1.3-1.1 2.4-2.4 2.4H8.5c-1 0-1.9-.7-2.3-1.6l-.8.8c.6 1.1 1.7 1.9 3 1.9h3.1c1.9 0 3.4-1.5 3.4-3.4v-.3C15 7.7 13.7 6.2 12 6zM7.7 9l-.7.6v.4h.5c1.9 0 3.4-1.5 3.4-3.4v-.2c0-.2 0-.4-.1-.6l-1 1c0 1.2-1 2.1-2.1 2.2z"/></svg>