<svg xmlns="http://www.w3.org/2000/svg" viewBox="0 0 16 16" fill="currentColor"><path d="M10.9 8.7C11.6 8 12 7.1 12 6c0-.7-.2-1.4-.6-2H13V3H3v1h1.6c-.4.6-.6 1.3-.6 2 0 1.1.4 2 1.1 2.7-1.8 1-3.1 2.9-3.1 5.2 0 .5 2.7 1.1 6 1.1s6-.6 6-1.1c0-2.3-1.2-4.2-3.1-5.2zM5 6c0-.8.3-1.5.8-2h4.5c.4.5.7 1.2.7 2 0 .9-.4 1.7-1.1 2.3-.6.4-1.2.7-1.9.7s-1.3-.3-1.8-.7C5.5 7.7 5 6.9 5 6zm3 7.9c-2.4 0-4.1-.3-4.8-.5.2-1.8 1.3-3.2 2.9-3.8.6.2 1.2.4 1.9.4s1.3-.2 1.9-.5c1.6.6 2.7 2.1 2.9 3.8-.7.3-2.4.6-4.8.6zM5.3 2.4c.5.1 5 .1 5.5 0 .6-.1-.6-1.5-.8-1.9C9.7.2 8.6 1 8 1 7.4 1 6.3.2 6.1.5c-.3.4-1.5 1.8-.8 1.9zm2.1 4h1c.2.3.5.6.9.6.5 0 1-.4 1-1s-.4-1-1-1c-.3 0-.6.2-.8.5h-1c-.2-.4-.5-.6-.9-.6-.5 0-1 .4-1 1s.4 1 1 1c.4 0 .7-.2.8-.5z"/></svg>